<svg width="71" height="71" viewBox="0 0 71 71" fill="none" xmlns="http://www.w3.org/2000/svg">
<rect width="71" height="71" rx="10" fill="#EB4F1F"/>
<path d="M41.3084 14.6016C41.0276 14.673 40.7603 14.7786 40.5147 14.9151L22.198 22.7533C21.7687 22.8605 21.3722 23.047 21.0365 23.2998C20.7007 23.5525 20.434 23.8653 20.2551 24.2161C20.0761 24.5668 19.9894 24.9469 20.001 25.3294C20.0126 25.712 20.1223 26.0877 20.3223 26.43C20.5223 26.7723 20.8076 27.0728 21.1583 27.3103C21.5089 27.5478 21.9162 27.7165 22.3514 27.8044C22.7866 27.8923 23.239 27.8973 23.6767 27.8191C24.1144 27.7409 24.5267 27.5813 24.8844 27.3517L43.2011 19.5135C43.8586 19.2337 44.3761 18.7604 44.6589 18.1804C44.9418 17.6004 44.9708 16.9527 44.7409 16.3558C44.5109 15.759 44.0373 15.2531 43.4068 14.9309C42.7764 14.6087 42.0314 14.4918 41.3084 14.6016ZM47.4139 22.4398C47.1332 22.5112 46.8658 22.6168 46.6202 22.7533L22.198 33.2043C21.7687 33.3114 21.3722 33.498 21.0365 33.7507C20.7007 34.0035 20.434 34.3163 20.2551 34.667C20.0761 35.0177 19.9894 35.3978 20.001 35.7804C20.0126 36.1629 20.1223 36.5386 20.3223 36.8809C20.5223 37.2232 20.8076 37.5237 21.1583 37.7612C21.5089 37.9987 21.9162 38.1674 22.3514 38.2553C22.7866 38.3433 23.239 38.3483 23.6767 38.2701C24.1144 38.1918 24.5267 38.0323 24.8844 37.8027L49.3067 27.3517C49.9641 27.0719 50.4817 26.5986 50.7645 26.0186C51.0473 25.4387 51.0764 24.7909 50.8464 24.1941C50.6164 23.5972 50.1428 23.0913 49.5124 22.7691C48.8819 22.4469 48.1369 22.33 47.4139 22.4398ZM47.4139 32.8907C47.1332 32.9621 46.8658 33.0677 46.6202 33.2043L28.3036 41.0425C27.7127 41.3146 27.2431 41.7458 26.9673 42.2693C26.6915 42.7928 26.6249 43.3794 26.7778 43.9386C26.9307 44.4977 27.2946 44.9982 27.8132 45.3625C28.3318 45.7269 28.9762 45.9349 29.6468 45.9544H41.8579C42.6675 46.0653 43.4955 45.8963 44.1596 45.4848C44.8237 45.0732 45.2696 44.4526 45.3991 43.7597C45.5286 43.0668 45.3312 42.3582 44.8503 41.7898C44.3694 41.2214 43.6444 40.8398 42.8348 40.7289L49.3067 37.8027C49.9641 37.5228 50.4817 37.0495 50.7645 36.4696C51.0473 35.8896 51.0764 35.2418 50.8464 34.645C50.6164 34.0482 50.1428 33.5423 49.5124 33.2201C48.8819 32.8979 48.1369 32.7809 47.4139 32.8907ZM31.7837 51.1799C30.9741 51.2907 30.249 51.6723 29.7681 52.2407C29.2872 52.8091 29.0898 53.5177 29.2194 54.2106C29.3489 54.9036 29.7948 55.5241 30.4589 55.9357C31.123 56.3473 31.951 56.5162 32.7606 56.4053H38.8662C39.6758 56.4053 40.4523 56.1301 41.0248 55.6401C41.5973 55.1501 41.9189 54.4856 41.9189 53.7926C41.9189 53.0997 41.5973 52.4351 41.0248 51.9451C40.4523 51.4551 39.6758 51.1799 38.8662 51.1799H32.7606C32.5778 51.1657 32.3939 51.1657 32.2111 51.1799C32.0891 51.1736 31.9668 51.1736 31.8448 51.1799H31.7837Z" fill="#FFF700"/>
</svg>
